<svg width="309" height="69" viewBox="0 0 309 69" fill="none" xmlns="http://www.w3.org/2000/svg">
    <rect y="31" width="294" height="10" fill="#FFEBC5"/>
    <rect x="268.363" y="10.896" width="11.1198" height="45.9074" transform="rotate(-45 268.363 10.896)" fill="#FFEBC5"/>
    <rect x="275.863" y="68.3245" width="11.1198" height="45.9074" transform="rotate(-135 275.863 68.3245)" fill="#FFEBC5"/>
    <path d="M10.8977 24.3089C9.27746 24.3089 7.88376 23.9657 6.71662 23.2791C5.55634 22.5857 4.66383 21.6245 4.03906 20.3956C3.42116 19.1667 3.11222 17.7524 3.11222 16.1527C3.11222 14.5324 3.4246 13.1113 4.04936 11.8892C4.68099 10.6603 5.57694 9.70253 6.73722 9.01598C7.89749 8.32256 9.27746 7.97585 10.8771 7.97585C12.2571 7.97585 13.4654 8.22644 14.5021 8.72763C15.5388 9.22881 16.3593 9.93253 16.9634 10.8388C17.5676 11.745 17.9006 12.8092 17.9624 14.0312H13.8224C13.7057 13.2417 13.3968 12.6067 12.8956 12.1261C12.4013 11.6386 11.7525 11.3949 10.9492 11.3949C10.2695 11.3949 9.67566 11.5803 9.16761 11.951C8.66643 12.3149 8.27509 12.8469 7.99361 13.5472C7.71212 14.2475 7.57138 15.0954 7.57138 16.0909C7.57138 17.1001 7.70869 17.9583 7.98331 18.6655C8.2648 19.3726 8.65956 19.9116 9.16761 20.2823C9.67566 20.6531 10.2695 20.8384 10.9492 20.8384C11.4504 20.8384 11.9001 20.7354 12.2983 20.5295C12.7034 20.3235 13.0363 20.0249 13.2972 19.6335C13.565 19.2353 13.7401 18.7582 13.8224 18.2021H17.9624C17.8937 19.4104 17.5642 20.4746 16.9737 21.3945C16.3902 22.3076 15.5835 23.0217 14.5536 23.5366C13.5238 24.0515 12.3052 24.3089 10.8977 24.3089ZM27.3382 24.3089C25.7386 24.3089 24.3552 23.9691 23.188 23.2894C22.0277 22.6029 21.1318 21.6486 20.5002 20.4265C19.8685 19.1976 19.5527 17.773 19.5527 16.1527C19.5527 14.5187 19.8685 13.0907 20.5002 11.8686C21.1318 10.6397 22.0277 9.68537 23.188 9.00568C24.3552 8.31913 25.7386 7.97585 27.3382 7.97585C28.9379 7.97585 30.3179 8.31913 31.4782 9.00568C32.6453 9.68537 33.5447 10.6397 34.1763 11.8686C34.8079 13.0907 35.1237 14.5187 35.1237 16.1527C35.1237 17.773 34.8079 19.1976 34.1763 20.4265C33.5447 21.6486 32.6453 22.6029 31.4782 23.2894C30.3179 23.9691 28.9379 24.3089 27.3382 24.3089ZM27.3588 20.9105C28.0866 20.9105 28.6942 20.7045 29.1816 20.2926C29.6691 19.8738 30.0364 19.304 30.2835 18.5831C30.5376 17.8622 30.6646 17.0418 30.6646 16.1218C30.6646 15.2018 30.5376 14.3814 30.2835 13.6605C30.0364 12.9396 29.6691 12.3698 29.1816 11.951C28.6942 11.5322 28.0866 11.3228 27.3588 11.3228C26.6242 11.3228 26.0063 11.5322 25.5051 11.951C25.0108 12.3698 24.6366 12.9396 24.3826 13.6605C24.1355 14.3814 24.0119 15.2018 24.0119 16.1218C24.0119 17.0418 24.1355 17.8622 24.3826 18.5831C24.6366 19.304 25.0108 19.8738 25.5051 20.2926C26.0063 20.7045 26.6242 20.9105 27.3588 20.9105ZM41.7834 14.8551V24H37.3964V8.18182H41.5775V10.9727H41.7629C42.113 10.0527 42.7 9.32493 43.5239 8.78942C44.3477 8.24704 45.3467 7.97585 46.5207 7.97585C47.6191 7.97585 48.5769 8.21615 49.3939 8.69673C50.2109 9.17732 50.8459 9.86387 51.2991 10.7564C51.7522 11.642 51.9788 12.6993 51.9788 13.9283V24H47.5917V14.7109C47.5986 13.7429 47.3514 12.9877 46.8502 12.4453C46.349 11.8961 45.659 11.6214 44.7803 11.6214C44.1898 11.6214 43.668 11.7485 43.2149 12.0025C42.7687 12.2565 42.4185 12.6272 42.1645 13.1147C41.9173 13.5953 41.7903 14.1754 41.7834 14.8551ZM63.2701 8.18182V11.4773H53.7442V8.18182H63.2701ZM55.9068 4.39205H60.2939V19.1392C60.2939 19.5443 60.3557 19.8601 60.4793 20.0866C60.6029 20.3063 60.7745 20.4608 60.9942 20.5501C61.2208 20.6393 61.4816 20.6839 61.7769 20.6839C61.9828 20.6839 62.1888 20.6668 62.3948 20.6325C62.6007 20.5913 62.7586 20.5604 62.8685 20.5398L63.5585 23.8043C63.3388 23.873 63.0298 23.9519 62.6316 24.0412C62.2334 24.1373 61.7494 24.1957 61.1796 24.2163C60.1223 24.2575 59.1954 24.1167 58.399 23.794C57.6095 23.4714 56.995 22.9702 56.5556 22.2905C56.1162 21.6108 55.9 20.7526 55.9068 19.7159V4.39205ZM65.5479 24V8.18182H69.8011V10.9418H69.9659C70.2542 9.95999 70.7382 9.21851 71.4179 8.71733C72.0976 8.20928 72.8803 7.95526 73.7659 7.95526C73.9856 7.95526 74.2225 7.96899 74.4765 7.99645C74.7305 8.02391 74.9537 8.06167 75.1459 8.10973V12.0025C74.9399 11.9407 74.655 11.8858 74.2912 11.8377C73.9273 11.7897 73.5943 11.7656 73.2922 11.7656C72.6469 11.7656 72.0702 11.9064 71.5621 12.1879C71.0609 12.4625 70.6627 12.8469 70.3675 13.3413C70.0791 13.8356 69.935 14.4054 69.935 15.0508V24H65.5479ZM76.8341 24V8.18182H81.2212V24H76.8341ZM79.0379 6.14276C78.3857 6.14276 77.8262 5.92649 77.3593 5.49396C76.8993 5.05457 76.6693 4.52936 76.6693 3.91832C76.6693 3.31416 76.8993 2.79581 77.3593 2.36328C77.8262 1.92389 78.3857 1.70419 79.0379 1.70419C79.6902 1.70419 80.2463 1.92389 80.7063 2.36328C81.1731 2.79581 81.4066 3.31416 81.4066 3.91832C81.4066 4.52936 81.1731 5.05457 80.7063 5.49396C80.2463 5.92649 79.6902 6.14276 79.0379 6.14276ZM84.2379 24V2.90909H88.6249V10.8388H88.7588C88.951 10.4131 89.2291 9.98059 89.593 9.54119C89.9637 9.09493 90.4443 8.7242 91.0347 8.42898C91.632 8.12689 92.3735 7.97585 93.2592 7.97585C94.4126 7.97585 95.4767 8.27794 96.4516 8.8821C97.4265 9.4794 98.2058 10.3822 98.7894 11.5906C99.3729 12.792 99.6647 14.299 99.6647 16.1115C99.6647 17.8759 99.3798 19.3658 98.8099 20.581C98.247 21.7893 97.478 22.7058 96.5031 23.3306C95.5351 23.9485 94.4503 24.2575 93.2489 24.2575C92.3975 24.2575 91.6732 24.1167 91.0759 23.8352C90.4855 23.5537 90.0015 23.2002 89.6239 22.7745C89.2463 22.342 88.9579 21.906 88.7588 21.4666H88.5631V24H84.2379ZM88.5322 16.0909C88.5322 17.0315 88.6627 17.8519 88.9236 18.5522C89.1845 19.2525 89.5621 19.7983 90.0564 20.1896C90.5507 20.5741 91.1514 20.7663 91.8586 20.7663C92.5726 20.7663 93.1768 20.5707 93.6711 20.1793C94.1654 19.7811 94.5396 19.2319 94.7936 18.5316C95.0545 17.8245 95.1849 17.0109 95.1849 16.0909C95.1849 15.1778 95.0579 14.3745 94.8039 13.6811C94.5499 12.9877 94.1757 12.4453 93.6814 12.054C93.1871 11.6626 92.5795 11.467 91.8586 11.467C91.1446 11.467 90.5404 11.6558 90.0461 12.0334C89.5586 12.411 89.1845 12.9465 88.9236 13.6399C88.6627 14.3333 88.5322 15.1503 88.5322 16.0909ZM112.156 17.2649V8.18182H116.543V24H112.331V21.1268H112.166C111.809 22.0536 111.215 22.7985 110.385 23.3615C109.561 23.9245 108.555 24.206 107.367 24.206C106.31 24.206 105.38 23.9657 104.576 23.4851C103.773 23.0045 103.145 22.3214 102.692 21.4357C102.245 20.5501 102.019 19.4893 102.012 18.2536V8.18182H106.399V17.4709C106.406 18.4046 106.657 19.1426 107.151 19.685C107.645 20.2274 108.308 20.4986 109.138 20.4986C109.667 20.4986 110.161 20.3784 110.621 20.1381C111.081 19.891 111.452 19.5271 111.734 19.0465C112.022 18.5659 112.163 17.9721 112.156 17.2649ZM119.472 24V8.18182H123.859V24H119.472ZM121.676 6.14276C121.024 6.14276 120.464 5.92649 119.997 5.49396C119.537 5.05457 119.307 4.52936 119.307 3.91832C119.307 3.31416 119.537 2.79581 119.997 2.36328C120.464 1.92389 121.024 1.70419 121.676 1.70419C122.328 1.70419 122.884 1.92389 123.344 2.36328C123.811 2.79581 124.044 3.31416 124.044 3.91832C124.044 4.52936 123.811 5.05457 123.344 5.49396C122.884 5.92649 122.328 6.14276 121.676 6.14276ZM134.002 24.3089C132.375 24.3089 130.975 23.9794 129.801 23.3203C128.633 22.6544 127.734 21.7138 127.102 20.4986C126.471 19.2765 126.155 17.8313 126.155 16.163C126.155 14.5359 126.471 13.1078 127.102 11.8789C127.734 10.65 128.623 9.69223 129.77 9.00568C130.923 8.31913 132.276 7.97585 133.827 7.97585C134.871 7.97585 135.842 8.14406 136.742 8.48047C137.648 8.81001 138.437 9.30776 139.11 9.97372C139.79 10.6397 140.318 11.4773 140.696 12.4865C141.074 13.4889 141.263 14.6629 141.263 16.0085V17.2134H127.906V14.4947H137.133C137.133 13.863 136.996 13.3035 136.721 12.8161C136.446 12.3286 136.065 11.9476 135.578 11.6729C135.097 11.3915 134.538 11.2507 133.899 11.2507C133.233 11.2507 132.643 11.4052 132.128 11.7141C131.62 12.0162 131.222 12.4247 130.933 12.9396C130.645 13.4477 130.497 14.0141 130.49 14.6388V17.2237C130.49 18.0064 130.635 18.6826 130.923 19.2525C131.218 19.8223 131.634 20.2617 132.169 20.5707C132.705 20.8796 133.34 21.0341 134.074 21.0341C134.562 21.0341 135.008 20.9654 135.413 20.8281C135.818 20.6908 136.165 20.4848 136.453 20.2102C136.742 19.9356 136.961 19.5992 137.112 19.201L141.17 19.4688C140.964 20.4437 140.542 21.295 139.903 22.0227C139.272 22.7436 138.455 23.3066 137.452 23.7116C136.457 24.1098 135.307 24.3089 134.002 24.3089ZM154.188 24.2987C153.179 24.2987 152.279 24.1236 151.49 23.7734C150.7 23.4164 150.076 22.8912 149.616 22.1978C149.162 21.4975 148.936 20.6256 148.936 19.582C148.936 18.7032 149.097 17.9652 149.42 17.3679C149.743 16.7706 150.182 16.29 150.738 15.9261C151.294 15.5623 151.926 15.2876 152.633 15.1023C153.347 14.9169 154.095 14.7865 154.878 14.7109C155.798 14.6148 156.539 14.5256 157.102 14.4432C157.665 14.3539 158.074 14.2235 158.328 14.0518C158.582 13.8802 158.709 13.6262 158.709 13.2898V13.228C158.709 12.5758 158.503 12.0711 158.091 11.7141C157.686 11.3571 157.109 11.1786 156.361 11.1786C155.571 11.1786 154.943 11.3537 154.476 11.7038C154.009 12.0471 153.701 12.4796 153.55 13.0014L149.492 12.6719C149.698 11.7107 150.103 10.88 150.707 10.1797C151.311 9.47254 152.091 8.93016 153.045 8.55256C154.006 8.16809 155.118 7.97585 156.382 7.97585C157.26 7.97585 158.101 8.07884 158.905 8.2848C159.715 8.49077 160.432 8.81001 161.057 9.24254C161.689 9.67507 162.186 10.2312 162.55 10.9109C162.914 11.5837 163.096 12.3904 163.096 13.331V24H158.936V21.8065H158.812C158.558 22.3008 158.218 22.7367 157.792 23.1143C157.367 23.4851 156.855 23.7769 156.258 23.9897C155.661 24.1957 154.971 24.2987 154.188 24.2987ZM155.444 21.271C156.09 21.271 156.66 21.1439 157.154 20.8899C157.648 20.629 158.036 20.2789 158.318 19.8395C158.599 19.4001 158.74 18.9023 158.74 18.3462V16.6676C158.603 16.7569 158.414 16.8393 158.173 16.9148C157.94 16.9834 157.676 17.0487 157.38 17.1104C157.085 17.1654 156.79 17.2169 156.495 17.2649C156.2 17.3061 155.932 17.3439 155.692 17.3782C155.177 17.4537 154.727 17.5739 154.342 17.7386C153.958 17.9034 153.659 18.1265 153.447 18.408C153.234 18.6826 153.127 19.0259 153.127 19.4379C153.127 20.0352 153.344 20.4917 153.776 20.8075C154.215 21.1165 154.772 21.271 155.444 21.271ZM170.307 14.8551V24H165.92V8.18182H170.101V10.9727H170.286C170.636 10.0527 171.223 9.32493 172.047 8.78942C172.871 8.24704 173.87 7.97585 175.044 7.97585C176.142 7.97585 177.1 8.21615 177.917 8.69673C178.734 9.17732 179.369 9.86387 179.822 10.7564C180.275 11.642 180.502 12.6993 180.502 13.9283V24H176.115V14.7109C176.122 13.7429 175.875 12.9877 175.373 12.4453C174.872 11.8961 174.182 11.6214 173.303 11.6214C172.713 11.6214 172.191 11.7485 171.738 12.0025C171.292 12.2565 170.942 12.6272 170.688 13.1147C170.441 13.5953 170.314 14.1754 170.307 14.8551ZM190.527 24.3089C188.927 24.3089 187.544 23.9691 186.376 23.2894C185.216 22.6029 184.32 21.6486 183.689 20.4265C183.057 19.1976 182.741 17.773 182.741 16.1527C182.741 14.5187 183.057 13.0907 183.689 11.8686C184.32 10.6397 185.216 9.68537 186.376 9.00568C187.544 8.31913 188.927 7.97585 190.527 7.97585C192.126 7.97585 193.506 8.31913 194.667 9.00568C195.834 9.68537 196.733 10.6397 197.365 11.8686C197.996 13.0907 198.312 14.5187 198.312 16.1527C198.312 17.773 197.996 19.1976 197.365 20.4265C196.733 21.6486 195.834 22.6029 194.667 23.2894C193.506 23.9691 192.126 24.3089 190.527 24.3089ZM190.547 20.9105C191.275 20.9105 191.883 20.7045 192.37 20.2926C192.858 19.8738 193.225 19.304 193.472 18.5831C193.726 17.8622 193.853 17.0418 193.853 16.1218C193.853 15.2018 193.726 14.3814 193.472 13.6605C193.225 12.9396 192.858 12.3698 192.37 11.951C191.883 11.5322 191.275 11.3228 190.547 11.3228C189.813 11.3228 189.195 11.5322 188.694 11.951C188.199 12.3698 187.825 12.9396 187.571 13.6605C187.324 14.3814 187.2 15.2018 187.2 16.1218C187.2 17.0418 187.324 17.8622 187.571 18.5831C187.825 19.304 188.199 19.8738 188.694 20.2926C189.195 20.7045 189.813 20.9105 190.547 20.9105ZM204.972 14.8551V24H200.585V8.18182H204.766V10.9727H204.951C205.301 10.0527 205.888 9.32493 206.712 8.78942C207.536 8.24704 208.535 7.97585 209.709 7.97585C210.808 7.97585 211.765 8.21615 212.582 8.69673C213.399 9.17732 214.034 9.86387 214.488 10.7564C214.941 11.642 215.167 12.6993 215.167 13.9283V24H210.78V14.7109C210.787 13.7429 210.54 12.9877 210.039 12.4453C209.537 11.8961 208.847 11.6214 207.969 11.6214C207.378 11.6214 206.856 11.7485 206.403 12.0025C205.957 12.2565 205.607 12.6272 205.353 13.1147C205.106 13.5953 204.979 14.1754 204.972 14.8551ZM218.045 24V8.18182H222.432V24H218.045ZM220.249 6.14276C219.596 6.14276 219.037 5.92649 218.57 5.49396C218.11 5.05457 217.88 4.52936 217.88 3.91832C217.88 3.31416 218.11 2.79581 218.57 2.36328C219.037 1.92389 219.596 1.70419 220.249 1.70419C220.901 1.70419 221.457 1.92389 221.917 2.36328C222.384 2.79581 222.617 3.31416 222.617 3.91832C222.617 4.52936 222.384 5.05457 221.917 5.49396C221.457 5.92649 220.901 6.14276 220.249 6.14276ZM225.366 24V8.18182H229.547V10.9727H229.733C230.062 10.0458 230.611 9.31463 231.38 8.77912C232.149 8.24361 233.069 7.97585 234.14 7.97585C235.225 7.97585 236.149 8.24704 236.911 8.78942C237.673 9.32493 238.181 10.0527 238.435 10.9727H238.6C238.922 10.0664 239.506 9.34209 240.35 8.79972C241.202 8.25047 242.207 7.97585 243.368 7.97585C244.844 7.97585 246.042 8.44614 246.962 9.38672C247.889 10.3204 248.352 11.6455 248.352 13.3619V24H243.975V14.2269C243.975 13.3481 243.742 12.689 243.275 12.2496C242.808 11.8103 242.225 11.5906 241.524 11.5906C240.728 11.5906 240.107 11.8446 239.66 12.3526C239.214 12.8538 238.991 13.5163 238.991 14.3402V24H234.738V14.1342C234.738 13.3584 234.515 12.7405 234.068 12.2805C233.629 11.8205 233.049 11.5906 232.328 11.5906C231.84 11.5906 231.401 11.7141 231.01 11.9613C230.625 12.2016 230.32 12.5414 230.093 12.9808C229.867 13.4134 229.753 13.9214 229.753 14.505V24H225.366Z" fill="#FFEBC5"/>
</svg>
